<svg xmlns="http://www.w3.org/2000/svg" xml:space="preserve" width="512px" height="512px" version="1.1" style="shape-rendering:geometricPrecision; text-rendering:geometricPrecision; image-rendering:optimizeQuality; fill-rule:evenodd; clip-rule:evenodd" viewBox="0 0 512 512" xmlns:xlink="http://www.w3.org/1999/xlink">
 <defs>
  <style type="text/css">
   
    .fil0 {fill:black}
   
  </style>
 </defs>
 <g id="Layer_x0020_1">
  <metadata id="CorelCorpID_0Corel-Layer"></metadata>
  <g id="_272849304">
   <g>
    <g id="_272846088">
     <path class="fil0" d="M256 512l-249 0c-4,0 -7,-3 -7,-7l0 -249c0,-4 3,-7 7,-7l83 0 0 -34c0,-23 19,-42 42,-42 22,0 41,19 41,42l0 34 83 0c4,0 7,3 7,7l0 83 34 0c23,0 42,19 42,41 0,23 -19,42 -42,42l-34 0 0 83c0,4 -3,7 -7,7zm-242 -14l235 0 0 -83c0,-4 3,-7 7,-7l41 0c15,0 28,-12 28,-28 0,-15 -13,-27 -28,-27l-41 0c-4,0 -7,-3 -7,-7l0 -83 -83 0c-4,0 -7,-3 -7,-7l0 -41c0,-15 -12,-28 -27,-28 -16,0 -28,13 -28,28l0 41c0,4 -3,7 -7,7l-83 0 0 235z" id="id_101" style="fill: rgb(9, 102, 149);"></path>
    </g>
    <g id="_272848488">
     <path class="fil0" d="M505 512l-249 0c-4,0 -7,-3 -7,-7 0,-4 3,-7 7,-7l242 0 0 -242c0,-4 3,-7 7,-7 4,0 7,3 7,7l0 249c0,4 -3,7 -7,7z" id="id_102" style="fill: rgb(9, 102, 149);"></path>
    </g>
    <g id="_272849352">
     <path class="fil0" d="M256 263c-4,0 -7,-3 -7,-7l0 -90c0,-4 3,-7 7,-7l41 0c15,0 28,-12 28,-27 0,-16 -13,-28 -28,-28l-41 0c-4,0 -7,-3 -7,-7l0 -83 -235 0 0 242c0,4 -3,7 -7,7 -4,0 -7,-3 -7,-7l0 -249c0,-4 3,-7 7,-7l249 0c4,0 7,3 7,7l0 83 34 0c23,0 42,19 42,42 0,22 -19,41 -42,41l-34 0 0 83c0,4 -3,7 -7,7z" id="id_103" style="fill: rgb(9, 102, 149);"></path>
    </g>
    <g id="_272848752">
     <path class="fil0" d="M380 339c-22,0 -41,-19 -41,-42l0 -34 -83 0c-4,0 -7,-3 -7,-7 0,-4 3,-7 7,-7l90 0c4,0 7,3 7,7l0 41c0,15 12,28 27,28 16,0 28,-13 28,-28l0 -41c0,-4 3,-7 7,-7l83 0 0 -235 -242 0c-4,0 -7,-3 -7,-7 0,-4 3,-7 7,-7l249 0c4,0 7,3 7,7l0 249c0,4 -3,7 -7,7l-83 0 0 34c0,23 -19,42 -42,42z" id="id_104" style="fill: rgb(9, 102, 149);"></path>
    </g>
   </g>
  </g>
 </g>
</svg>